HIERARCHY
ROOT root
{
	OFFSET 0.000000 0.000000 0.000000
	CHANNELS 6 Xposition Yposition Zposition Zrotation Yrotation Xrotation
	JOINT lhip
	{
		OFFSET 0.058581 -0.082280 -0.017664
		CHANNELS 3 Zrotation Yrotation Xrotation
		JOINT lknee
		{
			OFFSET 0.043451 -0.386469 0.008037
			CHANNELS 3 Zrotation Yrotation Xrotation
			JOINT lankle
			{
				OFFSET -0.014790 -0.426874 -0.037428
				CHANNELS 3 Zrotation Yrotation Xrotation
				JOINT ltoe
				{
					OFFSET 0.041054 -0.060286 0.122042
					CHANNELS 3 Zrotation Yrotation Xrotation
					End Site
					{
						OFFSET 0.000000 0.000000 0.000000
					}
				}
			}
		}
	}
	JOINT rhip
	{
		OFFSET -0.060310 -0.090513 -0.013543
		CHANNELS 3 Zrotation Yrotation Xrotation
		JOINT rknee
		{
			OFFSET -0.043257 -0.383688 -0.004843
			CHANNELS 3 Zrotation Yrotation Xrotation
			JOINT rankle
			{
				OFFSET 0.019056 -0.420046 -0.034562
				CHANNELS 3 Zrotation Yrotation Xrotation
				JOINT rtoe
				{
					OFFSET -0.034840 -0.062106 0.130323
					CHANNELS 3 Zrotation Yrotation Xrotation
					End Site
					{
						OFFSET 0.000000 0.000000 0.000000
					}
				}
			}
		}
	}
	JOINT lowerback
	{
		OFFSET 0.004439 0.124404 -0.038385
		CHANNELS 3 Zrotation Yrotation Xrotation
		JOINT upperback
		{
			OFFSET 0.004488 0.137956 0.026820
			CHANNELS 3 Zrotation Yrotation Xrotation
			JOINT chest
			{
				OFFSET -0.002265 0.056032 0.002855
				CHANNELS 3 Zrotation Yrotation Xrotation
				JOINT lowerneck
				{
					OFFSET -0.013390 0.211636 -0.033468
					CHANNELS 3 Zrotation Yrotation Xrotation
					JOINT upperneck
					{
						OFFSET 0.010113 0.088937 0.050410
						CHANNELS 3 Zrotation Yrotation Xrotation
						End Site
						{
							OFFSET 0.000000 0.000000 0.000000
						}
					}
				}
				JOINT lclavicle
				{
					OFFSET 0.071702 0.114000 -0.018898
					CHANNELS 3 Zrotation Yrotation Xrotation
					JOINT lshoulder
					{
						OFFSET 0.122921 0.045205 -0.019046
						CHANNELS 3 Zrotation Yrotation Xrotation
						JOINT lelbow
						{
							OFFSET 0.255332 -0.015649 -0.022946
							CHANNELS 3 Zrotation Yrotation Xrotation
							JOINT lwrist
							{
								OFFSET 0.265709 0.012698 -0.007375
								CHANNELS 3 Zrotation Yrotation Xrotation
								End Site
								{
									OFFSET 0.000000 0.000000 0.000000
								}
							}
						}
					}
				}
				JOINT rclavicle
				{
					OFFSET -0.082954 0.112472 -0.023707
					CHANNELS 3 Zrotation Yrotation Xrotation
					JOINT rshoulder
					{
						OFFSET -0.113228 0.046853 -0.008472
						CHANNELS 3 Zrotation Yrotation Xrotation
						JOINT relbow
						{
							OFFSET -0.260127 -0.014369 -0.031269
							CHANNELS 3 Zrotation Yrotation Xrotation
							JOINT rwrist
							{
								OFFSET -0.269108 0.006794 -0.006027
								CHANNELS 3 Zrotation Yrotation Xrotation
								End Site
								{
									OFFSET 0.000000 0.000000 0.000000
								}
							}
						}
					}
				}
			}
		}
	}
}
MOTION
Frames: 11
Frame Time: 0.033333
0.011228 -1.164805 0.967056 -169.610887 0.071206 106.562713 9.179866 -0.625009 -22.179629 -2.494007 -0.326098 2.796837 -2.876479 15.820169 -9.474725 0.000000 -0.000000 0.000000 -9.781614 -7.490429 -18.739045 -0.248413 -24.716414 10.105472 2.847089 -12.431334 -3.848081 0.000000 -0.000000 0.000000 3.115641 5.704966 -19.172341 -1.750878 0.579510 11.668896 -1.749285 2.765159 -0.043014 -6.849152 21.894376 5.646728 7.233464 29.969821 8.622787 -32.457462 -8.419955 2.388375 -57.131513 -5.001044 18.440271 11.583796 -21.355434 -0.607100 -13.725531 -9.077781 3.557027 25.562140 4.081150 7.172661 53.271370 4.196781 -0.362052 -12.557033 28.109766 -19.028665 12.160041 9.366591 -10.342376 
0.011324 -1.164334 0.967220 -169.587932 0.050895 106.193024 9.035929 -0.265367 -21.979761 -2.501977 -0.291178 3.062225 -2.965100 15.383373 -9.347454 0.000000 -0.000000 0.000000 -9.715229 -7.926565 -18.169571 -0.004946 -23.895598 9.761338 3.483312 -12.860429 -4.074298 0.000000 -0.000000 0.000000 3.522037 5.386616 -17.796870 -1.998201 0.451837 10.583542 -1.904395 2.938310 0.064122 -6.900647 22.035757 5.310029 7.074379 30.051073 8.842936 -32.300826 -7.900348 2.241640 -57.016774 -5.052184 18.462142 11.058829 -21.544308 0.049564 -12.823535 -8.578875 5.078737 25.564006 3.819802 7.318779 53.342293 4.768183 -0.670628 -12.154844 27.873801 -18.855034 12.739644 9.215845 -9.679967 
0.011523 -1.163480 0.967476 -169.736598 -0.027944 106.022007 8.857288 -0.060325 -21.668615 -2.452934 -0.137477 2.970200 -3.003217 15.273688 -9.374792 0.000000 -0.000000 0.000000 -9.729942 -8.146467 -17.926149 0.071785 -23.332608 9.667718 3.829376 -13.082667 -4.237399 0.000000 -0.000000 0.000000 3.795403 4.955951 -16.967888 -2.197199 0.275393 9.985813 -2.144551 3.274379 0.042750 -6.819230 22.474089 5.302261 6.595292 29.913515 8.221057 -32.185849 -6.945968 1.770239 -56.679978 -5.165116 18.596869 10.440181 -21.734691 0.333200 -12.784506 -7.151503 6.083486 25.908359 3.576108 7.536457 53.284379 5.280189 -0.379692 -12.254499 27.742303 -19.271533 13.380306 8.897806 -9.288171 
0.011889 -1.162459 0.967396 -170.142801 -0.162509 106.113952 8.642226 0.055810 -21.429203 -2.436856 0.166418 2.579034 -2.963448 15.372984 -9.122648 0.000000 -0.000000 0.000000 -9.954407 -8.198900 -18.025937 0.173346 -23.190966 9.625288 4.092126 -13.019586 -4.207376 0.000000 -0.000000 0.000000 3.978682 4.578264 -16.600604 -2.260785 0.063213 9.822118 -2.417483 3.668819 -0.216219 -6.677565 22.844790 5.511732 5.868909 29.521199 7.686225 -32.085358 -5.743579 1.447798 -56.458411 -5.658729 19.125363 9.856055 -22.235699 1.151361 -12.372056 -6.804352 6.372601 26.315326 3.298578 7.692610 53.045578 5.830120 0.455462 -12.425940 27.433858 -19.947574 14.069448 8.782506 -9.346552 
0.012062 -1.161445 0.967363 -170.135449 -0.149058 105.960805 8.647485 0.078285 -21.057824 -2.370940 -0.033898 2.310246 -3.013662 15.334877 -9.129681 0.000000 -0.000000 0.000000 -9.908883 -8.342506 -17.728608 0.238664 -23.085894 9.502135 4.089213 -12.976915 -4.263196 0.000000 -0.000000 0.000000 3.918889 4.606329 -16.601272 -2.161560 -0.033370 9.906504 -2.364782 3.620271 -0.115817 -6.776935 22.730812 5.507381 5.825899 29.609848 7.675214 -32.065071 -5.772020 1.528759 -56.511491 -5.696517 19.003858 9.819058 -22.253232 1.186508 -12.383361 -6.409741 6.356360 26.324906 3.230735 7.609088 52.960797 5.870223 0.353959 -12.346805 27.534988 -19.824809 14.276490 8.745459 -9.426873 
0.011621 -1.161720 0.967422 -170.674268 -0.238723 106.112658 8.357651 0.371753 -21.181895 -2.340118 0.385668 2.350929 -2.850199 15.128359 -9.111841 0.000000 -0.000000 0.000000 -10.153765 -8.143984 -18.247881 0.149078 -22.929118 9.886954 4.407855 -12.943595 -4.335917 0.000000 -0.000000 0.000000 4.248041 4.549119 -15.948732 -2.197635 0.200106 9.367191 -2.472700 3.258621 -0.039270 -7.931225 22.810382 4.418797 5.765403 29.887062 7.711493 -32.371080 -4.684215 0.613766 -56.066884 -5.632344 19.113425 9.164650 -22.772243 1.994106 -12.579403 -6.233763 6.258776 26.187936 2.747658 7.580865 52.911087 6.657477 0.485141 -12.094129 27.636964 -19.463609 14.461609 8.783006 -9.187751 
0.011986 -1.160170 0.967356 -170.718797 -0.303765 106.247713 8.289458 0.472160 -21.039404 -2.389717 0.281105 2.115187 -2.633266 15.105227 -9.108691 0.000000 -0.000000 0.000000 -10.184020 -8.284405 -18.290521 0.192271 -22.936980 9.867486 4.369271 -12.787604 -4.342965 0.000000 -0.000000 0.000000 3.965665 4.636725 -16.565109 -2.014145 0.104052 9.893223 -2.349866 3.138591 -0.239135 -8.044619 22.817633 4.661416 5.890619 29.991419 7.823825 -32.405894 -4.796081 0.760037 -56.149139 -5.646515 19.061224 9.191333 -22.640786 1.925738 -12.459219 -5.954497 6.518416 26.420299 2.752829 7.801562 52.722711 6.445878 0.320192 -12.315879 27.898014 -19.963543 14.622845 8.587185 -9.112850 
0.012167 -1.158947 0.967129 -170.790450 -0.310123 106.149323 8.316577 0.574314 -20.786050 -2.356096 0.314740 1.922888 -2.875750 14.556250 -9.230352 0.000000 -0.000000 0.000000 -10.173418 -8.434433 -18.142341 0.185819 -22.922837 9.908008 4.370183 -12.563483 -4.406042 0.000000 -0.000000 0.000000 3.872954 4.685949 -16.767950 -1.927457 -0.001920 10.246696 -2.321661 3.125165 -0.342146 -7.772837 23.066427 4.812219 5.719971 29.866222 7.989986 -32.187082 -4.950518 0.833321 -56.511276 -5.646400 19.109875 9.426528 -22.562186 1.733738 -12.651070 -6.239988 6.613962 26.506815 2.804361 7.860794 52.703216 6.352886 0.371151 -12.463966 27.918517 -20.146695 14.537086 8.559295 -9.208606 
0.012050 -1.157984 0.967023 -170.978963 -0.357677 106.103987 8.182903 0.772791 -20.681403 -2.379174 0.701993 1.989474 -2.884069 14.447994 -9.484742 0.000000 -0.000000 0.000000 -10.267125 -8.523239 -18.187867 0.159498 -22.836957 10.090977 4.495799 -12.468147 -4.493796 0.000000 -0.000000 0.000000 3.970009 4.644676 -16.572765 -1.945764 -0.057345 10.190781 -2.422841 3.043863 -0.402754 -7.767861 23.232607 4.489946 5.571840 29.981065 8.137991 -32.164193 -4.679192 0.613830 -56.462444 -5.493334 19.294060 9.207129 -22.924561 2.038271 -12.387812 -6.472593 6.691841 26.566261 2.693030 7.697014 52.684648 6.448120 0.702631 -12.335411 27.704567 -20.097810 14.438662 8.510228 -8.906767 
0.011801 -1.157073 0.966991 -171.211315 -0.482882 106.217702 8.067237 0.770661 -20.595829 -2.557149 0.786573 1.842901 -2.612588 15.098130 -9.303965 0.000000 -0.000000 0.000000 -10.483556 -8.514133 -18.377185 0.186985 -22.790636 10.229697 4.559171 -12.399099 -4.472281 0.000000 -0.000000 0.000000 3.824811 4.672124 -16.777358 -1.849679 -0.099417 10.544562 -2.435563 3.009956 -0.724026 -8.060376 23.302577 4.539715 5.585317 30.098684 7.986361 -32.234618 -4.546236 0.596123 -56.366527 -5.549506 19.316000 8.876182 -22.952284 2.308334 -12.063192 -6.591973 6.682677 26.601445 2.611289 7.799449 52.663249 6.507202 0.621651 -12.334216 27.622870 -20.045970 14.303328 8.522701 -8.445984 
0.011629 -1.155752 0.966905 -171.348558 -0.581065 106.188276 7.939696 0.933879 -20.406188 -2.607631 0.832897 1.770280 -2.441535 14.816627 -9.429262 0.000000 -0.000000 0.000000 -10.634534 -8.593480 -18.341395 0.193541 -22.770311 10.358702 4.657551 -12.267004 -4.566076 0.000000 -0.000000 0.000000 3.637962 4.682095 -17.107026 -1.740540 -0.172606 11.009992 -2.401583 2.956866 -0.816611 -8.011516 23.410704 4.530512 5.442300 30.008999 7.973105 -32.132290 -4.617659 0.577546 -56.537233 -5.613238 19.385179 8.936088 -22.844695 2.383487 -12.458134 -6.262145 7.097605 26.730787 2.659811 7.928979 52.575896 6.552911 0.647871 -12.538090 27.549112 -20.401597 14.458645 8.419057 -8.270062 
